<?xml version="1.0" standalone="no"?>
<!DOCTYPE svg PUBLIC "-//W3C//DTD SVG 20010904//EN"
 "http://www.w3.org/TR/2001/REC-SVG-20010904/DTD/svg10.dtd">
<svg version="1.0" xmlns="http://www.w3.org/2000/svg"
 width="512.000000pt" height="512.000000pt" viewBox="0 0 512.000000 512.000000"
 preserveAspectRatio="xMidYMid meet">

<g transform="translate(0.000000,512.000000) scale(0.100000,-0.100000)"
fill="#000000" stroke="none">
<path d="M2340 4904 c-115 -23 -237 -89 -321 -175 -162 -166 -236 -390 -219
-654 3 -49 5 -91 4 -93 -1 -1 -20 0 -43 4 l-41 7 0 112 c0 127 -10 167 -46
184 -35 16 -47 14 -78 -10 -26 -20 -26 -22 -26 -150 0 -95 -3 -131 -12 -133
-7 -2 -66 -10 -130 -19 -70 -10 -153 -29 -205 -47 -49 -17 -94 -32 -101 -33
-8 -1 -31 53 -63 151 -28 85 -59 162 -70 173 -35 35 -102 20 -120 -27 -7 -21
2 -61 50 -206 l60 -181 -27 -20 c-57 -42 -169 -165 -216 -237 -75 -114 -125
-213 -234 -466 -64 -149 -134 -291 -196 -397 -164 -283 -234 -435 -278 -606
-29 -115 -32 -322 -4 -426 41 -157 145 -325 279 -453 60 -57 70 -63 103 -60
26 2 43 11 57 30 28 38 16 70 -49 130 -181 169 -275 386 -261 603 11 169 80
353 225 603 131 226 185 334 266 525 195 457 310 609 549 722 136 65 208 78
422 79 l190 1 101 -36 c152 -53 335 -163 557 -334 24 -19 27 -30 42 -160 11
-94 16 -204 14 -335 -2 -107 0 -204 4 -216 7 -21 45 -44 72 -44 8 0 27 11 42
24 l28 24 0 279 0 279 85 -55 c172 -111 328 -177 498 -210 l87 -17 3 -185 c2
-101 -2 -233 -8 -294 -67 -647 -378 -1270 -901 -1812 l-90 -93 -53 0 -53 0 5
124 c4 116 3 125 -17 145 -28 28 -82 28 -107 0 -15 -17 -20 -43 -25 -135 -4
-63 -9 -117 -13 -121 -11 -11 -384 41 -445 63 -9 3 25 44 95 117 393 406 687
893 828 1372 42 146 66 247 66 285 0 69 -81 99 -127 46 -12 -15 -23 -35 -23
-44 0 -9 -13 -69 -30 -132 -135 -532 -419 -1012 -873 -1477 l-119 -122 -147
51 c-180 62 -404 160 -534 233 -122 69 -153 71 -183 13 -28 -53 -7 -79 115
-146 89 -50 235 -119 330 -158 20 -9 27 -23 41 -95 30 -147 93 -277 181 -370
52 -57 86 -63 124 -24 37 36 32 69 -21 134 -25 31 -58 78 -71 106 -24 47 -63
149 -63 166 0 4 42 -7 93 -23 198 -64 416 -111 670 -143 26 -3 47 -11 47 -16
0 -20 -49 -106 -84 -148 -20 -24 -39 -54 -42 -68 -15 -56 45 -102 102 -78 46
20 131 144 169 248 l18 47 121 0 c148 0 312 14 470 40 65 11 124 20 131 20 7
0 18 -20 24 -44 29 -116 91 -206 142 -206 36 0 79 39 79 73 0 13 -11 38 -25
57 -27 37 -58 121 -53 145 2 10 58 34 163 69 88 30 214 79 280 109 l120 54 6
-26 c11 -43 10 -124 -2 -184 -10 -48 -9 -60 5 -82 35 -53 105 -41 134 23 13
28 16 65 15 162 0 69 -5 138 -10 155 -9 29 -8 30 106 106 151 100 260 189 379
308 426 424 650 963 641 1546 l-1 110 65 135 c97 200 131 305 131 412 1 72 -2
91 -20 114 -41 56 -70 69 -147 69 -64 0 -82 -5 -157 -41 -47 -23 -119 -66
-160 -95 l-75 -54 -110 3 c-110 4 -223 -13 -347 -51 -27 -8 -48 -14 -48 -12 0
1 18 33 40 71 87 149 126 307 118 480 -7 140 -39 245 -109 348 -108 162 -264
246 -459 246 -191 0 -378 -89 -522 -249 l-52 -59 -23 101 c-56 248 -226 455
-434 526 -63 22 -213 36 -269 25z m267 -189 c218 -108 335 -364 303 -662 -18
-179 -75 -429 -132 -585 l-13 -37 -170 125 c-94 70 -217 158 -275 196 -97 65
-289 167 -337 180 -25 7 -33 62 -33 222 0 191 52 335 165 455 104 110 204 153
339 147 66 -4 91 -10 153 -41z m1196 -337 c243 -113 330 -447 192 -744 -43
-94 -177 -299 -208 -318 -12 -8 -85 -38 -162 -68 -139 -53 -141 -53 -250 -53
-84 1 -129 6 -190 23 -96 28 -245 96 -245 113 0 80 63 386 110 534 93 292 232
454 450 527 84 28 226 21 303 -14z m1164 -911 c-7 -54 -38 -154 -77 -242 l-21
-50 -36 67 c-19 37 -55 86 -79 110 -24 24 -44 46 -44 49 0 8 125 81 174 101
23 9 52 17 65 17 23 1 24 -1 18 -52z m-428 -153 c181 -53 261 -313 221 -715
-30 -294 -122 -570 -273 -817 -67 -110 -156 -228 -227 -303 l-51 -54 5 50 c3
28 8 78 12 112 6 57 5 63 -19 87 -32 32 -71 33 -101 3 -18 -18 -25 -42 -35
-117 -6 -52 -19 -144 -28 -203 l-17 -108 -91 -69 c-49 -37 -116 -84 -147 -104
l-57 -36 -32 60 c-51 97 -90 124 -144 104 -8 -4 -23 -20 -31 -36 -15 -29 -14
-33 30 -118 l45 -87 -90 -42 c-208 -97 -408 -164 -624 -210 -108 -23 -307 -51
-314 -45 -3 3 16 26 41 52 69 72 195 225 280 342 302 417 486 846 569 1330 16
98 22 183 26 391 l5 266 72 22 c39 13 146 52 239 89 92 36 169 63 172 60 7 -7
51 -231 70 -360 34 -225 47 -386 52 -667 6 -291 6 -295 29 -318 30 -30 69 -29
101 3 l26 26 -6 296 c-7 373 -41 680 -108 986 -11 49 -18 90 -17 92 3 2 131
36 183 47 49 11 185 6 234 -9z"/>
<path d="M850 2699 c-64 -27 -100 -92 -100 -181 0 -111 71 -195 157 -185 88 9
138 77 138 187 0 76 -22 130 -67 161 -34 25 -93 33 -128 18z"/>
<path d="M1760 2699 c-70 -29 -103 -96 -98 -194 3 -60 8 -78 31 -108 37 -49
80 -71 128 -64 85 11 134 80 134 187 0 76 -22 130 -67 161 -34 25 -93 33 -128
18z"/>
<path d="M1056 2319 c-23 -18 -26 -28 -26 -80 0 -158 123 -253 325 -253 102 1
172 20 233 64 84 60 122 211 67 265 -50 51 -125 13 -125 -62 0 -75 -52 -113
-158 -116 -136 -4 -192 28 -192 108 0 81 -65 120 -124 74z"/>
</g>
</svg>
