<?xml version="1.0" standalone="no"?>
<!DOCTYPE svg PUBLIC "-//W3C//DTD SVG 20010904//EN"
 "http://www.w3.org/TR/2001/REC-SVG-20010904/DTD/svg10.dtd">
<svg version="1.0" xmlns="http://www.w3.org/2000/svg"
 width="512.000000pt" height="512.000000pt" viewBox="0 0 512.000000 512.000000"
 preserveAspectRatio="xMidYMid meet">

<g transform="translate(0.000000,512.000000) scale(0.100000,-0.100000)"
fill="#000000" stroke="none">
<path d="M2480 4453 c-211 -21 -381 -53 -500 -95 -93 -33 -195 -81 -222 -106
-25 -21 -23 -77 3 -103 28 -28 59 -22 177 30 166 74 380 116 642 128 326 13
645 -51 917 -184 62 -30 117 -60 122 -67 7 -8 -32 -43 -132 -121 -133 -103
-142 -113 -145 -147 -2 -27 3 -43 17 -57 19 -19 33 -21 176 -21 252 0 449 -29
655 -96 117 -39 315 -133 303 -145 -4 -4 -80 -37 -168 -74 -174 -72 -211 -99
-200 -144 10 -40 32 -55 135 -91 195 -66 397 -187 550 -329 l75 -70 -136 -1
c-142 0 -193 -10 -209 -40 -19 -35 -10 -66 41 -135 28 -39 82 -124 121 -190
39 -66 78 -126 86 -133 24 -18 69 -15 92 8 39 39 25 87 -71 243 -27 43 -49 80
-49 82 0 2 70 5 155 7 143 3 156 5 176 25 37 37 29 73 -35 157 -122 160 -320
319 -527 425 l-117 59 150 63 c82 35 154 71 159 80 17 34 10 74 -18 101 -70
65 -236 158 -390 219 -154 61 -425 117 -636 131 l-38 3 90 68 c94 72 101 81
101 127 0 94 -430 300 -749 360 -187 35 -444 49 -601 33z"/>
<path d="M1493 4036 c-104 -117 -192 -301 -234 -485 -11 -49 -22 -146 -25
-226 l-6 -140 -56 -90 c-133 -215 -288 -393 -392 -450 -53 -28 -60 -29 -170
-28 -136 1 -234 17 -271 44 -76 54 -190 45 -263 -20 -92 -83 -100 -202 -22
-305 13 -18 28 -58 34 -94 17 -97 52 -161 133 -247 193 -202 599 -446 912
-545 72 -23 139 -45 148 -49 15 -5 11 -24 -29 -164 l-46 -158 -98 -51 c-164
-86 -267 -185 -284 -274 -8 -44 10 -88 42 -103 17 -7 140 -11 389 -11 363 0
364 0 388 23 18 16 53 104 133 337 59 173 108 316 109 317 1 2 69 -8 151 -22
342 -57 654 -92 917 -101 l177 -7 20 -45 c11 -24 20 -46 20 -47 0 -2 -24 -11
-52 -20 -187 -61 -312 -190 -325 -335 -5 -53 -4 -58 22 -78 l28 -22 606 0
c456 1 611 4 627 13 42 24 130 149 192 273 85 170 116 344 89 505 -9 52 -19
102 -22 111 -5 12 71 -4 337 -68 189 -46 355 -84 369 -84 15 0 37 9 50 19 23
19 24 24 24 158 -1 76 -6 170 -13 208 -21 115 -73 293 -94 320 -40 51 -128 21
-128 -43 0 -16 9 -54 19 -85 44 -126 88 -407 64 -407 -5 0 -175 40 -376 89
l-366 89 -578 303 c-349 183 -589 302 -605 302 -41 0 -68 -29 -68 -73 0 -21 6
-43 14 -49 8 -7 268 -145 578 -307 347 -182 571 -305 585 -321 44 -54 79 -217
68 -323 -14 -143 -64 -272 -155 -405 l-52 -75 -519 0 c-286 0 -519 4 -519 8 0
16 77 81 125 105 51 25 174 57 220 57 33 0 75 41 75 74 0 13 -16 43 -37 68
-110 130 -124 309 -37 480 13 26 24 59 24 73 0 36 -33 65 -74 65 -28 0 -40 -7
-61 -34 -39 -52 -86 -190 -92 -275 l-6 -74 -157 6 c-267 11 -554 45 -937 109
-178 29 -193 31 -216 15 -25 -16 -24 -14 -185 -477 l-67 -195 -260 -2 -260 -2
39 34 c21 19 85 58 143 87 57 29 110 59 118 68 22 25 148 475 141 504 -7 27
-51 56 -86 56 -12 0 -58 9 -103 21 -363 92 -918 434 -1016 627 -30 59 -27 70
22 83 60 16 131 90 146 155 l12 50 92 -8 c119 -11 232 3 300 36 123 60 258
201 409 426 50 74 92 137 94 139 3 3 45 -15 94 -39 l90 -44 0 -43 c0 -23 5
-53 11 -67 22 -48 104 -54 127 -9 5 10 12 57 16 104 8 109 30 178 73 228 41
49 88 65 164 58 121 -11 201 -92 202 -205 0 -39 -7 -70 -21 -98 -20 -39 -93
-114 -111 -114 -5 0 -23 -12 -40 -26 -70 -59 -16 -146 76 -122 40 10 43 8 406
-182 382 -200 385 -201 430 -162 20 18 23 71 5 95 -7 9 -161 94 -343 188 -181
95 -332 174 -334 176 -2 1 3 11 11 20 29 34 57 101 67 162 26 160 -52 312
-197 383 -63 31 -73 33 -172 33 -94 0 -110 -3 -156 -27 -65 -34 -136 -112
-165 -182 l-22 -54 -84 41 -83 41 0 66 c1 222 86 475 214 634 31 38 56 79 56
91 0 38 -37 75 -75 75 -28 0 -41 -9 -82 -54z"/>
<path d="M1099 2507 c-74 -49 -102 -174 -58 -264 58 -119 200 -119 258 0 60
124 -14 287 -129 287 -22 0 -51 -9 -71 -23z"/>
</g>
</svg>
