<?xml version="1.0" standalone="no"?>
<!DOCTYPE svg PUBLIC "-//W3C//DTD SVG 20010904//EN"
 "http://www.w3.org/TR/2001/REC-SVG-20010904/DTD/svg10.dtd">
<svg version="1.0" xmlns="http://www.w3.org/2000/svg"
 width="512.000000pt" height="512.000000pt" viewBox="0 0 512.000000 512.000000"
 preserveAspectRatio="xMidYMid meet">

<g transform="translate(0.000000,512.000000) scale(0.100000,-0.100000)"
fill="#000000" stroke="none">
<path d="M2480 5104 c-77 -33 -130 -112 -129 -191 0 -26 13 -95 28 -153 l28
-104 -86 -42 c-221 -109 -385 -333 -461 -629 -29 -112 -42 -138 -82 -168 -58
-43 -70 -42 -101 8 -35 55 -94 106 -156 136 -71 35 -178 33 -253 -4 -101 -50
-175 -158 -220 -322 -31 -116 -31 -374 0 -490 46 -169 131 -294 237 -345 41
-21 65 -25 135 -25 72 0 92 4 135 27 54 28 115 88 153 150 25 41 55 54 140 63
48 5 64 3 102 -17 84 -43 115 -132 68 -194 -12 -16 -72 -81 -133 -144 -159
-165 -220 -253 -268 -387 -81 -226 -46 -489 91 -689 71 -104 218 -236 324
-290 58 -29 68 -30 102 -3 26 20 35 69 18 95 -4 7 -48 39 -98 72 -162 108
-270 249 -311 403 -10 41 -16 101 -16 164 1 199 63 319 283 549 151 157 180
206 180 301 0 142 -123 270 -278 290 -67 9 -167 -10 -239 -45 -52 -26 -66 -39
-92 -84 -116 -206 -319 -127 -388 150 -24 96 -24 315 0 404 23 86 72 184 104
210 94 74 211 32 277 -98 34 -68 49 -77 114 -75 66 3 153 41 201 86 55 53 79
101 112 219 54 202 116 317 233 434 135 135 256 180 461 171 229 -10 399 -82
550 -232 103 -102 157 -194 197 -331 32 -112 33 -350 0 -469 -59 -220 -159
-388 -344 -582 -101 -104 -128 -154 -128 -233 0 -101 43 -168 236 -371 163
-172 247 -282 303 -395 65 -131 84 -215 84 -374 1 -197 -37 -386 -114 -578
-37 -92 -37 -124 -3 -151 30 -24 43 -26 78 -10 60 28 157 339 187 599 20 179
-2 355 -64 509 l-24 59 86 37 c278 120 376 247 326 421 -42 148 -159 254 -299
270 l-54 7 54 89 c89 147 146 266 138 291 -16 52 -77 76 -115 45 -9 -7 -46
-69 -84 -138 -107 -199 -364 -570 -394 -570 -14 0 -158 168 -175 204 -32 67
-18 101 79 196 194 188 341 461 391 725 20 112 15 336 -12 435 -112 421 -448
680 -905 697 l-137 5 -26 102 c-31 121 -32 138 -6 161 17 16 32 17 122 11 450
-30 780 -162 1023 -410 288 -293 361 -648 229 -1113 -23 -81 -24 -95 -12 -119
18 -38 68 -53 102 -30 47 30 111 285 122 488 21 369 -113 686 -400 946 -228
207 -573 343 -970 381 -147 15 -214 13 -256 -5z m1350 -2578 c55 -36 95 -108
95 -170 0 -45 -3 -51 -45 -88 -46 -41 -224 -133 -277 -144 -27 -5 -34 -1 -81
64 -29 38 -59 75 -68 83 -41 34 -38 47 28 115 63 66 163 144 209 164 36 15 96
5 139 -24z"/>
<path d="M2505 3990 c-92 -59 -110 -218 -34 -305 81 -92 208 -55 245 71 47
162 -90 312 -211 234z"/>
<path d="M1372 3574 c-43 -30 -56 -72 -57 -179 0 -116 6 -142 41 -184 36 -43
91 -44 127 -1 63 75 61 287 -3 352 -32 32 -73 37 -108 12z"/>
<path d="M2312 1277 c-27 -28 -28 -67 -4 -95 10 -12 54 -32 105 -47 100 -30
157 -69 204 -138 77 -115 65 -295 -26 -399 -110 -126 -376 -108 -675 44 -96
50 -105 52 -181 53 -58 0 -90 -5 -116 -18 -148 -74 -195 -269 -96 -398 62 -82
303 -196 521 -247 96 -22 134 -26 276 -26 121 0 188 4 250 17 266 57 497 178
690 364 177 169 213 236 154 282 -43 34 -71 27 -117 -26 -192 -224 -384 -359
-616 -434 -244 -78 -483 -76 -728 6 -130 43 -275 117 -308 157 -38 45 -35 100
9 144 46 46 84 45 186 -6 295 -148 554 -186 732 -106 110 48 198 159 233 291
40 157 -5 333 -116 450 -64 68 -111 95 -217 129 -103 32 -132 33 -160 3z"/>
</g>
</svg>
